
		<svg xmlns="http://www.w3.org/2000/svg" xmlns:xlink="http://www.w3.org/1999/xlink" version="1.1" width="3206.896551724138" height="931.0344827586207">
			
			<g transform="scale(10.344827586206897) translate(10, 10)">
				<defs id="SvgjsDefs1043"><linearGradient id="SvgjsLinearGradient1047"><stop id="SvgjsStop1048" stop-color="#ef4136" offset="0"></stop><stop id="SvgjsStop1049" stop-color="#fbb040" offset="1"></stop></linearGradient><linearGradient id="SvgjsLinearGradient1050"><stop id="SvgjsStop1051" stop-color="#ef4136" offset="0"></stop><stop id="SvgjsStop1052" stop-color="#fbb040" offset="1"></stop></linearGradient></defs><g id="SvgjsG1044" featureKey="root" fill="#161616"></g><g id="SvgjsG1045" featureKey="symbol1" fill="url(#SvgjsLinearGradient1050)" transform="matrix(0.7777777777777778,0,0,0.7777777777777778,-3.8888881471421985,-3.888888888888889)"><g><path d="M78.4,66.5c-5.5,4.8-9.9,15.2-9.9,15.2s-6.9-11.4-12.9-15.3c-9.5-6.1-13.6-6.2-13.6-6.2V65c0,0,7.8,1.2,11.7,4.6   c8.2,7.1,14.8,18.5,14.8,18.5S74.4,75,80.1,70.5C88.1,64.3,95,65,95,65v-4.8C95,60.1,85.1,60.7,78.4,66.5z"></path><path d="M42,80c-6.4-3.6-17.8-4.3-17.8-4.3s8.7-10.1,10.5-17C37.5,47.9,36.2,44,36.2,44l-4.6,1.6c0,0,1.3,7.7-0.6,12.4   c-4.1,9.9-13,19.8-13,19.8s14.6,1.3,20.7,5.1c8.6,5.4,10.2,12,10.2,12l4.6-1.6C53.5,93.4,49.7,84.4,42,80z"></path><path d="M35.3,36.8c11.3-0.9,14.6-3.4,14.6-3.4l-3-3.8c0,0-6.9,3.7-12.1,3.4c-10.9-0.6-23.3-5.6-23.3-5.6s3.5,14,1.8,20.9   C10.9,58.2,5,61.8,5,61.8l3,3.8c0,0,7.5-6.5,9.1-15.1c1.3-7.1-1.7-18-1.7-18S28,37.4,35.3,36.8z"></path><path d="M37.4,17.8c7.3-1.1,16.7-7.4,16.7-7.4s-0.6,13.2,2.4,19.8c4.6,10.2,8,12.5,8,12.5l2.7-4c0,0-5.9-5.2-7.3-10.2   C56.9,18.2,57.7,5,57.7,5s-12.3,7.8-19.5,8.5c-10.2,1-15.6-3.3-15.6-3.3l-2.7,4.1C19.9,14.2,28.6,19.1,37.4,17.8z"></path><path d="M65,60.5c0,0,3.1-7.2,7.4-10.1c9-6.1,21.9-9.7,21.9-9.7s-11.5-8.9-14.5-15.4c-4.2-9.1-1.9-15.6-1.9-15.6l-4.8-1.2   c0,0-1.9,9.6,2.2,17.4c3.4,6.4,12.5,13.2,12.5,13.2S75,42.9,69.6,47.8c-8.3,7.6-9.4,11.5-9.4,11.5L65,60.5z"></path></g></g><g id="SvgjsG1046" featureKey="text1" fill="url(#SvgjsLinearGradient1047)" transform="matrix(1.9349216601669779,0,0,1.9349216601669779,88.14247628573148,-0.40813848304931)"><path d="M3.44 18.740000000000002 q0 1.6 0.76 2.51 t2.1 0.91 q0.58 0 0.99 -0.05 t0.67 -0.11 l0 -6 q-0.32 -0.22 -0.85 -0.41 t-1.13 -0.19 q-1.32 0 -1.93 0.9 t-0.61 2.44 z M10.38 23.68 q-0.72 0.22 -1.81 0.4 t-2.29 0.18 q-1.24 0 -2.22 -0.38 t-1.67 -1.09 t-1.06 -1.72 t-0.37 -2.27 q0 -1.24 0.31 -2.25 t0.91 -1.73 t1.46 -1.11 t1.98 -0.39 q0.76 0 1.34 0.18 t1 0.4 l0 -5.02 l2.42 -0.4 l0 15.2 z M19.42 15.72 q-0.3 -0.1 -0.83 -0.21 t-1.23 -0.11 q-0.4 0 -0.85 0.08 t-0.63 0.14 l0 8.38 l-2.42 0 l0 -9.96 q0.7 -0.26 1.75 -0.49 t2.33 -0.23 q0.24 0 0.56 0.03 t0.64 0.08 t0.62 0.12 t0.48 0.13 z M25.2 22.3 q1.12 0 1.7 -0.12 l0 -2.68 q-0.2 -0.06 -0.58 -0.12 t-0.84 -0.06 q-0.4 0 -0.81 0.06 t-0.74 0.22 t-0.53 0.45 t-0.2 0.73 q0 0.86 0.54 1.19 t1.46 0.33 z M25 13.28 q1.2 0 2.02 0.3 t1.31 0.84 t0.7 1.31 t0.21 1.69 l0 6.34 q-0.56 0.12 -1.69 0.29 t-2.55 0.17 q-0.94 0 -1.72 -0.18 t-1.33 -0.58 t-0.86 -1.04 t-0.31 -1.58 q0 -0.9 0.35 -1.52 t0.95 -1.01 t1.39 -0.56 t1.65 -0.17 q0.4 0 0.84 0.05 t0.94 0.17 l0 -0.4 q0 -0.42 -0.1 -0.8 t-0.35 -0.67 t-0.66 -0.45 t-1.03 -0.16 q-0.84 0 -1.54 0.12 t-1.14 0.28 l-0.3 -1.96 q0.46 -0.16 1.34 -0.32 t1.88 -0.16 z M34.1 18.5 q0 1.54 0.67 2.25 t1.73 0.71 q0.58 0 1.09 -0.16 t0.83 -0.38 l0 -5.42 q-0.26 -0.06 -0.64 -0.11 t-0.96 -0.05 q-1.32 0 -2.02 0.87 t-0.7 2.29 z M40.84 22.94 q0 2.5 -1.27 3.66 t-3.89 1.16 q-0.96 0 -1.87 -0.16 t-1.65 -0.42 l0.44 -2.06 q0.62 0.26 1.41 0.42 t1.71 0.16 q1.46 0 2.08 -0.6 t0.62 -1.78 l0 -0.4 q-0.36 0.18 -0.95 0.36 t-1.35 0.18 q-1 0 -1.83 -0.32 t-1.42 -0.94 t-0.92 -1.55 t-0.33 -2.15 q0 -1.14 0.35 -2.1 t1.02 -1.64 t1.63 -1.06 t2.18 -0.38 q1.18 0 2.24 0.18 t1.8 0.38 l0 9.06 z M53.38 18.759999999999998 q0 1.24 -0.36 2.26 t-1.02 1.74 t-1.59 1.12 t-2.05 0.4 t-2.04 -0.4 t-1.58 -1.12 t-1.03 -1.74 t-0.37 -2.26 t0.37 -2.25 t1.04 -1.73 t1.59 -1.11 t2.02 -0.39 t2.03 0.39 t1.59 1.11 t1.03 1.73 t0.37 2.25 z M50.900000000000006 18.759999999999998 q0 -1.56 -0.67 -2.47 t-1.87 -0.91 t-1.87 0.91 t-0.67 2.47 q0 1.58 0.67 2.5 t1.87 0.92 t1.87 -0.92 t0.67 -2.5 z M55.88 13.88 q0.7 -0.2 1.82 -0.38 t2.48 -0.18 q1.28 0 2.14 0.35 t1.37 0.98 t0.72 1.52 t0.21 1.95 l0 5.88 l-2.42 0 l0 -5.5 q0 -0.84 -0.11 -1.43 t-0.36 -0.96 t-0.68 -0.54 t-1.05 -0.17 q-0.46 0 -0.96 0.06 t-0.74 0.1 l0 8.44 l-2.42 0 l0 -10.12 z  M78.2 15.72 q-0.3 -0.1 -0.83 -0.21 t-1.23 -0.11 q-0.4 0 -0.85 0.08 t-0.63 0.14 l0 8.38 l-2.42 0 l0 -9.96 q0.7 -0.26 1.75 -0.49 t2.33 -0.23 q0.24 0 0.56 0.03 t0.64 0.08 t0.62 0.12 t0.48 0.13 z M82.74000000000001 24 l-2.42 0 l0 -10.46 l2.42 0 l0 10.46 z M83 10.48 q0 0.68 -0.44 1.08 t-1.04 0.4 q-0.62 0 -1.06 -0.4 t-0.44 -1.08 q0 -0.7 0.44 -1.1 t1.06 -0.4 q0.6 0 1.04 0.4 t0.44 1.1 z M88.44 22.26 q0.96 0 1.4 -0.23 t0.44 -0.79 q0 -0.52 -0.47 -0.86 t-1.55 -0.74 q-0.66 -0.24 -1.21 -0.51 t-0.95 -0.63 t-0.63 -0.87 t-0.23 -1.25 q0 -1.44 1.06 -2.27 t2.88 -0.83 q0.92 0 1.76 0.17 t1.26 0.33 l-0.44 1.96 q-0.4 -0.18 -1.02 -0.33 t-1.44 -0.15 q-0.74 0 -1.2 0.25 t-0.46 0.77 q0 0.26 0.09 0.46 t0.31 0.37 t0.58 0.34 t0.88 0.35 q0.86 0.32 1.46 0.63 t0.99 0.7 t0.57 0.89 t0.18 1.2 q0 1.5 -1.11 2.27 t-3.17 0.77 q-1.38 0 -2.22 -0.23 t-1.18 -0.37 l0.42 -2.02 q0.54 0.22 1.29 0.42 t1.71 0.2 z M97.38 17.62 q0.46 -0.48 0.98 -1.03 t1.02 -1.1 t0.95 -1.06 t0.77 -0.89 l2.86 0 q-1 1.12 -2.11 2.32 t-2.23 2.34 q0.6 0.5 1.26 1.21 t1.28 1.51 t1.16 1.6 t0.9 1.48 l-2.8 0 q-0.36 -0.62 -0.83 -1.3 t-1.01 -1.32 t-1.1 -1.21 t-1.1 -0.97 l0 4.8 l-2.42 0 l0 -15.12 l2.42 -0.4 l0 9.14 z"></path></g>
			</g>
		</svg>
	